<svg xmlns="http://www.w3.org/2000/svg" viewBox="0 0 64 64" width="64" height="64">
<rect width="64" height="64" rx="14" fill="#fdf6ee"/><g transform="translate(12.00 12.76) scale(0.0795)"><g transform="translate(-2.0 441.0) scale(1 -1)"><g transform="translate(0.0 0)"><path d="M472 63 398 -10 231 173 175 123Q175 100 175.0 85.5Q175 71 176 66Q179 36 202 14Q197 10 185.5 7.0Q174 4 157 0Q124 -6 102 -6Q92 -6 89 -5Q77 -2 77 55Q77 81 80 125Q83 174 83 177Q84 200 85.0 223.0Q86 246 87 269Q87 284 86.5 291.0Q86 298 84.5 301.0Q83 304 81.5 304.0Q80 304 78 304Q70 304 57 298Q40 292 38 292L35 375Q91 391 154 392Q165 394 176.0 388.5Q187 383 187 374Q188 355 186.5 320.5Q185 286 182 235Q237 283 364 408L436 357Q303 232 307 232Q330 209 371.0 167.0Q412 125 472 63Z" fill="#2a2320"/></g></g></g>
</svg>
