<svg xmlns="http://www.w3.org/2000/svg" viewBox="0 0 1280 640" width="1280" height="640">
<rect width="1280" height="640" fill="#fdf6ee"/><g transform="translate(260.00 159.95) scale(0.3702)"><g transform="translate(-0.0 604.0) scale(1 -1)"><g transform="translate(0.0 0) scale(1.12)"><path d="M447 14 406 -27 199 178 141 131Q140 61 141 52Q144 22 167 0Q135 -20 107 -20Q99 -20 96 -19Q85 -16 85 51Q85 43 86.5 74.0Q88 105 90 177Q94 340 91 344Q89 346 85 346Q77 346 64 340Q47 334 45 334L42 387Q55 391 74.0 395.0Q93 399 119 404Q130 406 140.5 400.5Q151 395 152 386Q153 350 143 194Q171 218 230.5 273.5Q290 329 382 417L423 378L242 214Q270 187 321.0 137.0Q372 87 447 14Z" fill="#2a2320"/></g><g transform="translate(499.5 0)"><path d="M438 194Q438 103 380 48Q321 -8 237 -8Q145 -8 87 52Q31 109 33 196Q34 281 90 337Q147 394 237 394Q328 394 383 339Q438 284 438 194ZM377 194Q377 225 367.5 252.0Q358 279 339.5 299.0Q321 319 295.5 330.0Q270 341 239 341Q176 341 134 299Q93 256 93 194Q93 133 135 90Q178 47 239 47Q299 47 337.5 87.0Q376 127 377 194Z" fill="#2a2320"/></g><g transform="translate(970.5 0)"><path d="M149 509Q149 491 134.0 476.5Q119 462 100 462Q82 462 67.5 476.0Q53 490 53 509Q53 528 67.5 542.5Q82 557 100 557Q119 557 134.0 542.5Q149 528 149 509ZM131 -1H65Q74 204 65 387H131Q124 197 131 -1Z" fill="#2a2320"/></g><g transform="translate(1158.5 0)"><path d="M392 0H324Q324 29 324.0 57.0Q324 85 325 113Q326 153 325 188Q324 223 321.5 248.5Q319 274 314 290Q296 343 247 344Q196 345 158 318L125 288V0H60Q63 103 63 341Q63 347 63.0 359.0Q63 371 62 388L123 389L122 342Q183 395 256 395Q325 395 356 352Q390 305 390 187Q390 157 390.0 125.0Q390 93 391 58Q392 24 392.0 9.5Q392 -5 392 0Z" fill="#2a2320"/></g><g transform="translate(1609.5 0)"><path d="M272 288Q271 355 198 351Q180 350 159.5 343.5Q139 337 120.5 327.0Q102 317 85.5 304.0Q69 291 59 277V337Q111 398 200 400Q257 401 292 374Q333 342 333 279V73Q333 50 350 50Q356 50 397 80V26Q364 -9 339 -9Q287 -9 275 40Q229 -8 150 -10Q126 -10 106.0 -1.5Q86 7 71.0 22.0Q56 37 48.0 57.0Q40 77 40 100Q40 150 74 183Q106 213 159 221Q179 223 207.0 227.5Q235 232 272 238ZM275 90V186Q260 184 234.5 180.5Q209 177 174 172Q141 167 119.5 149.0Q98 131 98 108Q98 80 115.5 61.5Q133 43 161 43Q182 43 220 58Q259 75 275 90Z" fill="#2a2320"/></g></g></g><text x="640" y="452" text-anchor="middle" font-family="ui-monospace, SFMono-Regular, Menlo, monospace" font-size="34" letter-spacing="6" fill="#2a2320" opacity="0.72">an agentic toolset</text>
</svg>
